<svg xmlns="http://www.w3.org/2000/svg" version="1.1" xmlns:xlink="http://www.w3.org/1999/xlink" xmlns:svgjs="http://svgjs.dev/svgjs" width="1440" height="560" preserveAspectRatio="none" viewBox="0 0 1440 560"><g mask="url(&quot;#SvgjsMask1000&quot;)" fill="none"><rect width="1440" height="560" x="0" y="0" fill="#0e2a47"></rect><path d="M48.42 -5.33L113.37 32.17L113.37 107.17L48.42 144.67L-16.53 107.17L-16.53 32.17zM113.37 107.17L178.33 144.67L178.33 219.67L113.37 257.17L48.42 219.67L48.42 144.67zM113.37 557.17L178.33 594.67L178.33 669.67L113.37 707.17L48.42 669.67L48.42 594.67zM178.33 -5.33L243.28 32.17L243.28 107.17L178.33 144.67L113.37 107.17L113.37 32.17zM308.24 -5.33L373.19 32.17L373.19 107.17L308.24 144.67L243.28 107.17L243.28 32.17zM308.24 219.67L373.19 257.17L373.19 332.17L308.24 369.67L243.28 332.17L243.28 257.17zM373.19 557.17L438.14 594.67L438.14 669.67L373.19 707.17L308.24 669.67L308.24 594.67zM503.1 107.17L568.05 144.67L568.05 219.67L503.1 257.17L438.14 219.67L438.14 144.67zM438.14 444.67L503.1 482.17L503.1 557.17L438.14 594.67L373.19 557.17L373.19 482.17zM633 107.17L697.96 144.67L697.96 219.67L633 257.17L568.05 219.67L568.05 144.67zM568.05 219.67L633 257.17L633 332.17L568.05 369.67L503.1 332.17L503.1 257.17zM568.05 444.67L633 482.17L633 557.17L568.05 594.67L503.1 557.17L503.1 482.17zM633 557.17L697.96 594.67L697.96 669.67L633 707.17L568.05 669.67L568.05 594.67zM762.91 107.17L827.87 144.67L827.87 219.67L762.91 257.17L697.96 219.67L697.96 144.67zM697.96 444.67L762.91 482.17L762.91 557.17L697.96 594.67L633 557.17L633 482.17zM827.86 444.67L892.82 482.17L892.82 557.17L827.86 594.67L762.91 557.17L762.91 482.17zM1022.73 557.17L1087.68 594.67L1087.68 669.67L1022.73 707.17L957.77 669.67L957.77 594.67zM1087.68 219.67L1152.63 257.17L1152.63 332.17L1087.68 369.67L1022.73 332.17L1022.73 257.17zM1152.63 332.17L1217.59 369.67L1217.59 444.67L1152.63 482.17L1087.68 444.67L1087.68 369.67zM1217.59 219.67L1282.54 257.17L1282.54 332.17L1217.59 369.67L1152.63 332.17L1152.63 257.17zM1217.59 444.67L1282.54 482.17L1282.54 557.17L1217.59 594.67L1152.63 557.17L1152.63 482.17zM1282.54 557.17L1347.49 594.67L1347.49 669.67L1282.54 707.17L1217.59 669.67L1217.59 594.67zM1347.5 -5.33L1412.45 32.17L1412.45 107.17L1347.5 144.67L1282.54 107.17L1282.54 32.17zM1412.45 332.17L1477.4 369.67L1477.4 444.67L1412.45 482.17L1347.5 444.67L1347.5 369.67zM1347.5 444.67L1412.45 482.17L1412.45 557.17L1347.5 594.67L1282.54 557.17L1282.54 482.17z" stroke="#03305d" stroke-width="2"></path><path d="M40.92 -5.33 a7.5 7.5 0 1 0 15 0 a7.5 7.5 0 1 0 -15 0zM105.87 32.17 a7.5 7.5 0 1 0 15 0 a7.5 7.5 0 1 0 -15 0zM105.87 107.17 a7.5 7.5 0 1 0 15 0 a7.5 7.5 0 1 0 -15 0zM40.92 144.67 a7.5 7.5 0 1 0 15 0 a7.5 7.5 0 1 0 -15 0zM-24.03 107.17 a7.5 7.5 0 1 0 15 0 a7.5 7.5 0 1 0 -15 0zM-24.03 32.17 a7.5 7.5 0 1 0 15 0 a7.5 7.5 0 1 0 -15 0zM170.83 144.67 a7.5 7.5 0 1 0 15 0 a7.5 7.5 0 1 0 -15 0zM170.83 219.67 a7.5 7.5 0 1 0 15 0 a7.5 7.5 0 1 0 -15 0zM105.87 257.17 a7.5 7.5 0 1 0 15 0 a7.5 7.5 0 1 0 -15 0zM40.92 219.67 a7.5 7.5 0 1 0 15 0 a7.5 7.5 0 1 0 -15 0zM105.87 557.17 a7.5 7.5 0 1 0 15 0 a7.5 7.5 0 1 0 -15 0zM170.83 594.67 a7.5 7.5 0 1 0 15 0 a7.5 7.5 0 1 0 -15 0zM170.83 669.67 a7.5 7.5 0 1 0 15 0 a7.5 7.5 0 1 0 -15 0zM105.87 707.17 a7.5 7.5 0 1 0 15 0 a7.5 7.5 0 1 0 -15 0zM40.92 669.67 a7.5 7.5 0 1 0 15 0 a7.5 7.5 0 1 0 -15 0zM40.92 594.67 a7.5 7.5 0 1 0 15 0 a7.5 7.5 0 1 0 -15 0zM170.83 -5.33 a7.5 7.5 0 1 0 15 0 a7.5 7.5 0 1 0 -15 0zM235.78 32.17 a7.5 7.5 0 1 0 15 0 a7.5 7.5 0 1 0 -15 0zM235.78 107.17 a7.5 7.5 0 1 0 15 0 a7.5 7.5 0 1 0 -15 0zM300.74 -5.33 a7.5 7.5 0 1 0 15 0 a7.5 7.5 0 1 0 -15 0zM365.69 32.17 a7.5 7.5 0 1 0 15 0 a7.5 7.5 0 1 0 -15 0zM365.69 107.17 a7.5 7.5 0 1 0 15 0 a7.5 7.5 0 1 0 -15 0zM300.74 144.67 a7.5 7.5 0 1 0 15 0 a7.5 7.5 0 1 0 -15 0zM300.74 219.67 a7.5 7.5 0 1 0 15 0 a7.5 7.5 0 1 0 -15 0zM365.69 257.17 a7.5 7.5 0 1 0 15 0 a7.5 7.5 0 1 0 -15 0zM365.69 332.17 a7.5 7.5 0 1 0 15 0 a7.5 7.5 0 1 0 -15 0zM300.74 369.67 a7.5 7.5 0 1 0 15 0 a7.5 7.5 0 1 0 -15 0zM235.78 332.17 a7.5 7.5 0 1 0 15 0 a7.5 7.5 0 1 0 -15 0zM235.78 257.17 a7.5 7.5 0 1 0 15 0 a7.5 7.5 0 1 0 -15 0zM365.69 557.17 a7.5 7.5 0 1 0 15 0 a7.5 7.5 0 1 0 -15 0zM430.64 594.67 a7.5 7.5 0 1 0 15 0 a7.5 7.5 0 1 0 -15 0zM430.64 669.67 a7.5 7.5 0 1 0 15 0 a7.5 7.5 0 1 0 -15 0zM365.69 707.17 a7.5 7.5 0 1 0 15 0 a7.5 7.5 0 1 0 -15 0zM300.74 669.67 a7.5 7.5 0 1 0 15 0 a7.5 7.5 0 1 0 -15 0zM300.74 594.67 a7.5 7.5 0 1 0 15 0 a7.5 7.5 0 1 0 -15 0zM495.6 107.17 a7.5 7.5 0 1 0 15 0 a7.5 7.5 0 1 0 -15 0zM560.55 144.67 a7.5 7.5 0 1 0 15 0 a7.5 7.5 0 1 0 -15 0zM560.55 219.67 a7.5 7.5 0 1 0 15 0 a7.5 7.5 0 1 0 -15 0zM495.6 257.17 a7.5 7.5 0 1 0 15 0 a7.5 7.5 0 1 0 -15 0zM430.64 219.67 a7.5 7.5 0 1 0 15 0 a7.5 7.5 0 1 0 -15 0zM430.64 144.67 a7.5 7.5 0 1 0 15 0 a7.5 7.5 0 1 0 -15 0zM430.64 444.67 a7.5 7.5 0 1 0 15 0 a7.5 7.5 0 1 0 -15 0zM495.6 482.17 a7.5 7.5 0 1 0 15 0 a7.5 7.5 0 1 0 -15 0zM495.6 557.17 a7.5 7.5 0 1 0 15 0 a7.5 7.5 0 1 0 -15 0zM365.69 482.17 a7.5 7.5 0 1 0 15 0 a7.5 7.5 0 1 0 -15 0zM625.5 107.17 a7.5 7.5 0 1 0 15 0 a7.5 7.5 0 1 0 -15 0zM690.46 144.67 a7.5 7.5 0 1 0 15 0 a7.5 7.5 0 1 0 -15 0zM690.46 219.67 a7.5 7.5 0 1 0 15 0 a7.5 7.5 0 1 0 -15 0zM625.5 257.17 a7.5 7.5 0 1 0 15 0 a7.5 7.5 0 1 0 -15 0zM625.5 332.17 a7.5 7.5 0 1 0 15 0 a7.5 7.5 0 1 0 -15 0zM560.55 369.67 a7.5 7.5 0 1 0 15 0 a7.5 7.5 0 1 0 -15 0zM495.6 332.17 a7.5 7.5 0 1 0 15 0 a7.5 7.5 0 1 0 -15 0zM560.55 444.67 a7.5 7.5 0 1 0 15 0 a7.5 7.5 0 1 0 -15 0zM625.5 482.17 a7.5 7.5 0 1 0 15 0 a7.5 7.5 0 1 0 -15 0zM625.5 557.17 a7.5 7.5 0 1 0 15 0 a7.5 7.5 0 1 0 -15 0zM560.55 594.67 a7.5 7.5 0 1 0 15 0 a7.5 7.5 0 1 0 -15 0zM690.46 594.67 a7.5 7.5 0 1 0 15 0 a7.5 7.5 0 1 0 -15 0zM690.46 669.67 a7.5 7.5 0 1 0 15 0 a7.5 7.5 0 1 0 -15 0zM625.5 707.17 a7.5 7.5 0 1 0 15 0 a7.5 7.5 0 1 0 -15 0zM560.55 669.67 a7.5 7.5 0 1 0 15 0 a7.5 7.5 0 1 0 -15 0zM755.41 107.17 a7.5 7.5 0 1 0 15 0 a7.5 7.5 0 1 0 -15 0zM820.37 144.67 a7.5 7.5 0 1 0 15 0 a7.5 7.5 0 1 0 -15 0zM820.37 219.67 a7.5 7.5 0 1 0 15 0 a7.5 7.5 0 1 0 -15 0zM755.41 257.17 a7.5 7.5 0 1 0 15 0 a7.5 7.5 0 1 0 -15 0zM690.46 444.67 a7.5 7.5 0 1 0 15 0 a7.5 7.5 0 1 0 -15 0zM755.41 482.17 a7.5 7.5 0 1 0 15 0 a7.5 7.5 0 1 0 -15 0zM755.41 557.17 a7.5 7.5 0 1 0 15 0 a7.5 7.5 0 1 0 -15 0zM820.36 444.67 a7.5 7.5 0 1 0 15 0 a7.5 7.5 0 1 0 -15 0zM885.32 482.17 a7.5 7.5 0 1 0 15 0 a7.5 7.5 0 1 0 -15 0zM885.32 557.17 a7.5 7.5 0 1 0 15 0 a7.5 7.5 0 1 0 -15 0zM820.36 594.67 a7.5 7.5 0 1 0 15 0 a7.5 7.5 0 1 0 -15 0zM1015.23 557.17 a7.5 7.5 0 1 0 15 0 a7.5 7.5 0 1 0 -15 0zM1080.18 594.67 a7.5 7.5 0 1 0 15 0 a7.5 7.5 0 1 0 -15 0zM1080.18 669.67 a7.5 7.5 0 1 0 15 0 a7.5 7.5 0 1 0 -15 0zM1015.23 707.17 a7.5 7.5 0 1 0 15 0 a7.5 7.5 0 1 0 -15 0zM950.27 669.67 a7.5 7.5 0 1 0 15 0 a7.5 7.5 0 1 0 -15 0zM950.27 594.67 a7.5 7.5 0 1 0 15 0 a7.5 7.5 0 1 0 -15 0zM1080.18 219.67 a7.5 7.5 0 1 0 15 0 a7.5 7.5 0 1 0 -15 0zM1145.13 257.17 a7.5 7.5 0 1 0 15 0 a7.5 7.5 0 1 0 -15 0zM1145.13 332.17 a7.5 7.5 0 1 0 15 0 a7.5 7.5 0 1 0 -15 0zM1080.18 369.67 a7.5 7.5 0 1 0 15 0 a7.5 7.5 0 1 0 -15 0zM1015.23 332.17 a7.5 7.5 0 1 0 15 0 a7.5 7.5 0 1 0 -15 0zM1015.23 257.17 a7.5 7.5 0 1 0 15 0 a7.5 7.5 0 1 0 -15 0zM1210.09 369.67 a7.5 7.5 0 1 0 15 0 a7.5 7.5 0 1 0 -15 0zM1210.09 444.67 a7.5 7.5 0 1 0 15 0 a7.5 7.5 0 1 0 -15 0zM1145.13 482.17 a7.5 7.5 0 1 0 15 0 a7.5 7.5 0 1 0 -15 0zM1080.18 444.67 a7.5 7.5 0 1 0 15 0 a7.5 7.5 0 1 0 -15 0zM1210.09 219.67 a7.5 7.5 0 1 0 15 0 a7.5 7.5 0 1 0 -15 0zM1275.04 257.17 a7.5 7.5 0 1 0 15 0 a7.5 7.5 0 1 0 -15 0zM1275.04 332.17 a7.5 7.5 0 1 0 15 0 a7.5 7.5 0 1 0 -15 0zM1275.04 482.17 a7.5 7.5 0 1 0 15 0 a7.5 7.5 0 1 0 -15 0zM1275.04 557.17 a7.5 7.5 0 1 0 15 0 a7.5 7.5 0 1 0 -15 0zM1210.09 594.67 a7.5 7.5 0 1 0 15 0 a7.5 7.5 0 1 0 -15 0zM1145.13 557.17 a7.5 7.5 0 1 0 15 0 a7.5 7.5 0 1 0 -15 0zM1339.99 594.67 a7.5 7.5 0 1 0 15 0 a7.5 7.5 0 1 0 -15 0zM1339.99 669.67 a7.5 7.5 0 1 0 15 0 a7.5 7.5 0 1 0 -15 0zM1275.04 707.17 a7.5 7.5 0 1 0 15 0 a7.5 7.5 0 1 0 -15 0zM1210.09 669.67 a7.5 7.5 0 1 0 15 0 a7.5 7.5 0 1 0 -15 0zM1340 -5.33 a7.5 7.5 0 1 0 15 0 a7.5 7.5 0 1 0 -15 0zM1404.95 32.17 a7.5 7.5 0 1 0 15 0 a7.5 7.5 0 1 0 -15 0zM1404.95 107.17 a7.5 7.5 0 1 0 15 0 a7.5 7.5 0 1 0 -15 0zM1340 144.67 a7.5 7.5 0 1 0 15 0 a7.5 7.5 0 1 0 -15 0zM1275.04 107.17 a7.5 7.5 0 1 0 15 0 a7.5 7.5 0 1 0 -15 0zM1275.04 32.17 a7.5 7.5 0 1 0 15 0 a7.5 7.5 0 1 0 -15 0zM1404.95 332.17 a7.5 7.5 0 1 0 15 0 a7.5 7.5 0 1 0 -15 0zM1469.9 369.67 a7.5 7.5 0 1 0 15 0 a7.5 7.5 0 1 0 -15 0zM1469.9 444.67 a7.5 7.5 0 1 0 15 0 a7.5 7.5 0 1 0 -15 0zM1404.95 482.17 a7.5 7.5 0 1 0 15 0 a7.5 7.5 0 1 0 -15 0zM1340 444.67 a7.5 7.5 0 1 0 15 0 a7.5 7.5 0 1 0 -15 0zM1340 369.67 a7.5 7.5 0 1 0 15 0 a7.5 7.5 0 1 0 -15 0zM1404.95 557.17 a7.5 7.5 0 1 0 15 0 a7.5 7.5 0 1 0 -15 0zM1340 594.67 a7.5 7.5 0 1 0 15 0 a7.5 7.5 0 1 0 -15 0z" fill="#03305d"></path><path d="M17.77 134.42L61.07 159.42L61.07 209.42L17.77 234.42L-25.53 209.42L-25.53 159.42zM61.07 209.42L104.38 234.42L104.38 284.42L61.07 309.42L17.77 284.42L17.77 234.42zM61.07 509.42L104.38 534.42L104.38 584.42L61.07 609.42L17.77 584.42L17.77 534.42zM147.68 209.42L190.98 234.42L190.98 284.42L147.68 309.42L104.38 284.42L104.38 234.42zM147.68 359.42L190.98 384.42L190.98 434.42L147.68 459.42L104.38 434.42L104.38 384.42zM277.58 284.42L320.89 309.42L320.89 359.42L277.58 384.42L234.28 359.42L234.28 309.42zM277.58 434.42L320.89 459.42L320.89 509.42L277.58 534.42L234.28 509.42L234.28 459.42zM407.49 59.42L450.8 84.42L450.8 134.42L407.49 159.42L364.19 134.42L364.19 84.42zM364.19 434.42L407.49 459.42L407.49 509.42L364.19 534.42L320.89 509.42L320.89 459.42zM450.8 134.42L494.1 159.42L494.1 209.42L450.8 234.42L407.49 209.42L407.49 159.42zM537.4 -15.58L580.7 9.42L580.7 59.42L537.4 84.42L494.1 59.42L494.1 9.42zM537.4 284.42L580.7 309.42L580.7 359.42L537.4 384.42L494.1 359.42L494.1 309.42zM580.7 359.42L624 384.42L624 434.42L580.7 459.42L537.4 434.42L537.4 384.42zM624 -15.58L667.31 9.42L667.31 59.42L624 84.42L580.7 59.42L580.7 9.42zM753.91 209.42L797.22 234.42L797.22 284.42L753.91 309.42L710.61 284.42L710.61 234.42zM840.52 209.42L883.82 234.42L883.82 284.42L840.52 309.42L797.22 284.42L797.22 234.42zM797.22 434.42L840.52 459.42L840.52 509.42L797.22 534.42L753.91 509.42L753.91 459.42zM840.52 509.42L883.82 534.42L883.82 584.42L840.52 609.42L797.22 584.42L797.22 534.42zM1013.73 509.42L1057.03 534.42L1057.03 584.42L1013.73 609.42L970.43 584.42L970.43 534.42zM1100.33 59.42L1143.63 84.42L1143.63 134.42L1100.33 159.42L1057.03 134.42L1057.03 84.42zM1100.33 209.42L1143.63 234.42L1143.63 284.42L1100.33 309.42L1057.03 284.42L1057.03 234.42zM1057.03 284.42L1100.33 309.42L1100.33 359.42L1057.03 384.42L1013.73 359.42L1013.73 309.42zM1057.03 434.42L1100.33 459.42L1100.33 509.42L1057.03 534.42L1013.73 509.42L1013.73 459.42zM1186.94 59.42L1230.24 84.42L1230.24 134.42L1186.94 159.42L1143.63 134.42L1143.63 84.42zM1143.63 134.42L1186.94 159.42L1186.94 209.42L1143.63 234.42L1100.33 209.42L1100.33 159.42zM1273.54 209.42L1316.85 234.42L1316.85 284.42L1273.54 309.42L1230.24 284.42L1230.24 234.42zM1273.54 359.42L1316.85 384.42L1316.85 434.42L1273.54 459.42L1230.24 434.42L1230.24 384.42zM1360.15 59.42L1403.45 84.42L1403.45 134.42L1360.15 159.42L1316.85 134.42L1316.85 84.42zM1446.75 359.42L1490.06 384.42L1490.06 434.42L1446.75 459.42L1403.45 434.42L1403.45 384.42z" stroke="rgba(6, 80, 156, 0.93)" stroke-width="2"></path></g><defs><mask id="SvgjsMask1000"><rect width="1440" height="560" fill="#ffffff"></rect></mask></defs></svg>